<svg xmlns="http://www.w3.org/2000/svg" xmlns:xlink="http://www.w3.org/1999/xlink" width="1080" zoomAndPan="magnify" viewBox="0 0 810 809.999993" height="1080" preserveAspectRatio="xMidYMid meet" version="1.0"><defs><clipPath id="de243a0fac"><path d="M 33 296 L 369 296 L 369 401 L 33 401 Z M 33 296 " clip-rule="nonzero"/></clipPath><clipPath id="42b8d70c01"><path d="M 28.164062 287.613281 L 678.191406 120.167969 L 781.839844 522.53125 L 131.808594 689.976562 Z M 28.164062 287.613281 " clip-rule="nonzero"/></clipPath><clipPath id="e990d2a74b"><path d="M 28.164062 287.613281 L 678.191406 120.167969 L 781.839844 522.53125 L 131.808594 689.976562 Z M 28.164062 287.613281 " clip-rule="nonzero"/></clipPath><clipPath id="b63ec8d496"><path d="M 429 132 L 683 132 L 683 381 L 429 381 Z M 429 132 " clip-rule="nonzero"/></clipPath><clipPath id="8b8f7a69e6"><path d="M 28.164062 287.613281 L 678.191406 120.167969 L 781.839844 522.53125 L 131.808594 689.976562 Z M 28.164062 287.613281 " clip-rule="nonzero"/></clipPath><clipPath id="54e14e1779"><path d="M 28.164062 287.613281 L 678.191406 120.167969 L 781.839844 522.53125 L 131.808594 689.976562 Z M 28.164062 287.613281 " clip-rule="nonzero"/></clipPath><clipPath id="91e96bf482"><path d="M 440 409 L 777 409 L 777 514 L 440 514 Z M 440 409 " clip-rule="nonzero"/></clipPath><clipPath id="bf8c8ddfc8"><path d="M 28.164062 287.613281 L 678.191406 120.167969 L 781.839844 522.53125 L 131.808594 689.976562 Z M 28.164062 287.613281 " clip-rule="nonzero"/></clipPath><clipPath id="6c10fcb8e6"><path d="M 28.164062 287.613281 L 678.191406 120.167969 L 781.839844 522.53125 L 131.808594 689.976562 Z M 28.164062 287.613281 " clip-rule="nonzero"/></clipPath><clipPath id="a3f940bdde"><path d="M 127 428 L 381 428 L 381 677 L 127 677 Z M 127 428 " clip-rule="nonzero"/></clipPath><clipPath id="3e7ff17110"><path d="M 28.164062 287.613281 L 678.191406 120.167969 L 781.839844 522.53125 L 131.808594 689.976562 Z M 28.164062 287.613281 " clip-rule="nonzero"/></clipPath><clipPath id="e45ec21e7d"><path d="M 28.164062 287.613281 L 678.191406 120.167969 L 781.839844 522.53125 L 131.808594 689.976562 Z M 28.164062 287.613281 " clip-rule="nonzero"/></clipPath><clipPath id="8c5095a0c6"><path d="M 33 269 L 126 269 L 126 374 L 33 374 Z M 33 269 " clip-rule="nonzero"/></clipPath><clipPath id="25aebd2dd4"><path d="M 28.164062 287.613281 L 678.191406 120.167969 L 781.839844 522.53125 L 131.808594 689.976562 Z M 28.164062 287.613281 " clip-rule="nonzero"/></clipPath><clipPath id="6d6b6981a0"><path d="M 28.164062 287.613281 L 678.191406 120.167969 L 781.839844 522.53125 L 131.808594 689.976562 Z M 28.164062 287.613281 " clip-rule="nonzero"/></clipPath><clipPath id="6d6b8ec889"><path d="M 586 132 L 683 132 L 683 228 L 586 228 Z M 586 132 " clip-rule="nonzero"/></clipPath><clipPath id="a8cd3686bd"><path d="M 28.164062 287.613281 L 678.191406 120.167969 L 781.839844 522.53125 L 131.808594 689.976562 Z M 28.164062 287.613281 " clip-rule="nonzero"/></clipPath><clipPath id="31cbff6b8a"><path d="M 28.164062 287.613281 L 678.191406 120.167969 L 781.839844 522.53125 L 131.808594 689.976562 Z M 28.164062 287.613281 " clip-rule="nonzero"/></clipPath><clipPath id="2dcd5455c6"><path d="M 684 435 L 777 435 L 777 541 L 684 541 Z M 684 435 " clip-rule="nonzero"/></clipPath><clipPath id="8e6a4a0b06"><path d="M 28.164062 287.613281 L 678.191406 120.167969 L 781.839844 522.53125 L 131.808594 689.976562 Z M 28.164062 287.613281 " clip-rule="nonzero"/></clipPath><clipPath id="498683efea"><path d="M 28.164062 287.613281 L 678.191406 120.167969 L 781.839844 522.53125 L 131.808594 689.976562 Z M 28.164062 287.613281 " clip-rule="nonzero"/></clipPath><clipPath id="78eb0f3bc9"><path d="M 127 581 L 224 581 L 224 677 L 127 677 Z M 127 581 " clip-rule="nonzero"/></clipPath><clipPath id="5c4b0f4c24"><path d="M 28.164062 287.613281 L 678.191406 120.167969 L 781.839844 522.53125 L 131.808594 689.976562 Z M 28.164062 287.613281 " clip-rule="nonzero"/></clipPath><clipPath id="032ed37338"><path d="M 28.164062 287.613281 L 678.191406 120.167969 L 781.839844 522.53125 L 131.808594 689.976562 Z M 28.164062 287.613281 " clip-rule="nonzero"/></clipPath><clipPath id="34c9b23a9c"><path d="M 359 358 L 451 358 L 451 451 L 359 451 Z M 359 358 " clip-rule="nonzero"/></clipPath><clipPath id="fc9b12ce0a"><path d="M 28.164062 287.613281 L 678.191406 120.167969 L 781.839844 522.53125 L 131.808594 689.976562 Z M 28.164062 287.613281 " clip-rule="nonzero"/></clipPath><clipPath id="aa7c273577"><path d="M 28.164062 287.613281 L 678.191406 120.167969 L 781.839844 522.53125 L 131.808594 689.976562 Z M 28.164062 287.613281 " clip-rule="nonzero"/></clipPath><clipPath id="95c3411853"><path d="M 128 312 L 171 312 L 171 355 L 128 355 Z M 128 312 " clip-rule="nonzero"/></clipPath><clipPath id="c92aa784a9"><path d="M 28.164062 287.613281 L 678.191406 120.167969 L 781.839844 522.53125 L 131.808594 689.976562 Z M 28.164062 287.613281 " clip-rule="nonzero"/></clipPath><clipPath id="63e3e5c769"><path d="M 28.164062 287.613281 L 678.191406 120.167969 L 781.839844 522.53125 L 131.808594 689.976562 Z M 28.164062 287.613281 " clip-rule="nonzero"/></clipPath><clipPath id="034eaf6f7d"><path d="M 573 197 L 616 197 L 616 241 L 573 241 Z M 573 197 " clip-rule="nonzero"/></clipPath><clipPath id="dbeb80da4d"><path d="M 28.164062 287.613281 L 678.191406 120.167969 L 781.839844 522.53125 L 131.808594 689.976562 Z M 28.164062 287.613281 " clip-rule="nonzero"/></clipPath><clipPath id="bfd9af233f"><path d="M 28.164062 287.613281 L 678.191406 120.167969 L 781.839844 522.53125 L 131.808594 689.976562 Z M 28.164062 287.613281 " clip-rule="nonzero"/></clipPath><clipPath id="55e51fdc6a"><path d="M 639 454 L 682 454 L 682 497 L 639 497 Z M 639 454 " clip-rule="nonzero"/></clipPath><clipPath id="e7f0f923dd"><path d="M 28.164062 287.613281 L 678.191406 120.167969 L 781.839844 522.53125 L 131.808594 689.976562 Z M 28.164062 287.613281 " clip-rule="nonzero"/></clipPath><clipPath id="cdb7d8f4b4"><path d="M 28.164062 287.613281 L 678.191406 120.167969 L 781.839844 522.53125 L 131.808594 689.976562 Z M 28.164062 287.613281 " clip-rule="nonzero"/></clipPath><clipPath id="ae9cd34426"><path d="M 194 569 L 237 569 L 237 612 L 194 612 Z M 194 569 " clip-rule="nonzero"/></clipPath><clipPath id="36c9c91ade"><path d="M 28.164062 287.613281 L 678.191406 120.167969 L 781.839844 522.53125 L 131.808594 689.976562 Z M 28.164062 287.613281 " clip-rule="nonzero"/></clipPath><clipPath id="30f992b2a6"><path d="M 28.164062 287.613281 L 678.191406 120.167969 L 781.839844 522.53125 L 131.808594 689.976562 Z M 28.164062 287.613281 " clip-rule="nonzero"/></clipPath><clipPath id="18d9e00fbf"><path d="M 191 238 L 233 238 L 233 322 L 191 322 Z M 191 238 " clip-rule="nonzero"/></clipPath><clipPath id="d6e93a2c7d"><path d="M 28.164062 287.613281 L 678.191406 120.167969 L 781.839844 522.53125 L 131.808594 689.976562 Z M 28.164062 287.613281 " clip-rule="nonzero"/></clipPath><clipPath id="3ee1441c7c"><path d="M 28.164062 287.613281 L 678.191406 120.167969 L 781.839844 522.53125 L 131.808594 689.976562 Z M 28.164062 287.613281 " clip-rule="nonzero"/></clipPath><clipPath id="e3a9c07712"><path d="M 176 249 L 247 249 L 247 311 L 176 311 Z M 176 249 " clip-rule="nonzero"/></clipPath><clipPath id="03afcf65e7"><path d="M 28.164062 287.613281 L 678.191406 120.167969 L 781.839844 522.53125 L 131.808594 689.976562 Z M 28.164062 287.613281 " clip-rule="nonzero"/></clipPath><clipPath id="f8c88e9126"><path d="M 28.164062 287.613281 L 678.191406 120.167969 L 781.839844 522.53125 L 131.808594 689.976562 Z M 28.164062 287.613281 " clip-rule="nonzero"/></clipPath><clipPath id="8193ca78f8"><path d="M 500 161 L 534 161 L 534 242 L 500 242 Z M 500 161 " clip-rule="nonzero"/></clipPath><clipPath id="037caf4da7"><path d="M 28.164062 287.613281 L 678.191406 120.167969 L 781.839844 522.53125 L 131.808594 689.976562 Z M 28.164062 287.613281 " clip-rule="nonzero"/></clipPath><clipPath id="0435dd7b71"><path d="M 28.164062 287.613281 L 678.191406 120.167969 L 781.839844 522.53125 L 131.808594 689.976562 Z M 28.164062 287.613281 " clip-rule="nonzero"/></clipPath><clipPath id="f67fce5758"><path d="M 485 169 L 525 169 L 525 209 L 485 209 Z M 485 169 " clip-rule="nonzero"/></clipPath><clipPath id="a764b44b7c"><path d="M 28.164062 287.613281 L 678.191406 120.167969 L 781.839844 522.53125 L 131.808594 689.976562 Z M 28.164062 287.613281 " clip-rule="nonzero"/></clipPath><clipPath id="24cb504b6a"><path d="M 28.164062 287.613281 L 678.191406 120.167969 L 781.839844 522.53125 L 131.808594 689.976562 Z M 28.164062 287.613281 " clip-rule="nonzero"/></clipPath><clipPath id="d145118592"><path d="M 276 566 L 317 566 L 317 649 L 276 649 Z M 276 566 " clip-rule="nonzero"/></clipPath><clipPath id="88f7125574"><path d="M 28.164062 287.613281 L 678.191406 120.167969 L 781.839844 522.53125 L 131.808594 689.976562 Z M 28.164062 287.613281 " clip-rule="nonzero"/></clipPath><clipPath id="bec2618fed"><path d="M 28.164062 287.613281 L 678.191406 120.167969 L 781.839844 522.53125 L 131.808594 689.976562 Z M 28.164062 287.613281 " clip-rule="nonzero"/></clipPath><clipPath id="719b7c7ab6"><path d="M 261 576 L 332 576 L 332 639 L 261 639 Z M 261 576 " clip-rule="nonzero"/></clipPath><clipPath id="3c0521ce0c"><path d="M 28.164062 287.613281 L 678.191406 120.167969 L 781.839844 522.53125 L 131.808594 689.976562 Z M 28.164062 287.613281 " clip-rule="nonzero"/></clipPath><clipPath id="e88c099713"><path d="M 28.164062 287.613281 L 678.191406 120.167969 L 781.839844 522.53125 L 131.808594 689.976562 Z M 28.164062 287.613281 " clip-rule="nonzero"/></clipPath><clipPath id="aaace7b114"><path d="M 585 488 L 619 488 L 619 569 L 585 569 Z M 585 488 " clip-rule="nonzero"/></clipPath><clipPath id="6aba1f6685"><path d="M 28.164062 287.613281 L 678.191406 120.167969 L 781.839844 522.53125 L 131.808594 689.976562 Z M 28.164062 287.613281 " clip-rule="nonzero"/></clipPath><clipPath id="b74618cdf2"><path d="M 28.164062 287.613281 L 678.191406 120.167969 L 781.839844 522.53125 L 131.808594 689.976562 Z M 28.164062 287.613281 " clip-rule="nonzero"/></clipPath><clipPath id="fae1d2e7eb"><path d="M 570 496 L 610 496 L 610 537 L 570 537 Z M 570 496 " clip-rule="nonzero"/></clipPath><clipPath id="60ff74c6d6"><path d="M 28.164062 287.613281 L 678.191406 120.167969 L 781.839844 522.53125 L 131.808594 689.976562 Z M 28.164062 287.613281 " clip-rule="nonzero"/></clipPath><clipPath id="586eb9dd38"><path d="M 28.164062 287.613281 L 678.191406 120.167969 L 781.839844 522.53125 L 131.808594 689.976562 Z M 28.164062 287.613281 " clip-rule="nonzero"/></clipPath></defs><g clip-path="url(#de243a0fac)"><g clip-path="url(#42b8d70c01)"><g clip-path="url(#e990d2a74b)"><path fill="#000000" d="M 42.78125 296.417969 C 38.910156 295.347656 34.902344 297.621094 33.832031 301.492188 C 32.765625 305.367188 35.035156 309.371094 38.90625 310.441406 L 359.722656 399.742188 C 363.597656 400.8125 367.601562 398.539062 368.671875 394.667969 C 369.742188 390.796875 367.46875 386.789062 363.597656 385.71875 Z M 42.78125 296.417969 " fill-opacity="1" fill-rule="nonzero"/></g></g></g><g clip-path="url(#b63ec8d496)"><g clip-path="url(#8b8f7a69e6)"><g clip-path="url(#54e14e1779)"><path fill="#000000" d="M 679.859375 145.332031 C 682.730469 142.511719 682.769531 137.894531 679.945312 135.027344 C 677.125 132.15625 672.507812 132.117188 669.640625 134.941406 L 431.894531 368.125 C 429.023438 370.949219 428.988281 375.5625 431.808594 378.433594 C 434.632812 381.300781 439.246094 381.339844 442.117188 378.519531 Z M 679.859375 145.332031 " fill-opacity="1" fill-rule="nonzero"/></g></g></g><g clip-path="url(#91e96bf482)"><g clip-path="url(#bf8c8ddfc8)"><g clip-path="url(#6c10fcb8e6)"><path fill="#000000" d="M 767.089844 513.136719 C 770.964844 514.207031 774.96875 511.933594 776.039062 508.0625 C 777.109375 504.1875 774.835938 500.183594 770.964844 499.113281 L 450.148438 409.8125 C 446.277344 408.742188 442.269531 411.015625 441.199219 414.886719 C 440.128906 418.757812 442.402344 422.765625 446.273438 423.835938 Z M 767.089844 513.136719 " fill-opacity="1" fill-rule="nonzero"/></g></g></g><g clip-path="url(#a3f940bdde)"><g clip-path="url(#3e7ff17110)"><g clip-path="url(#e45ec21e7d)"><path fill="#000000" d="M 130.011719 664.21875 C 127.140625 667.042969 127.101562 671.65625 129.925781 674.527344 C 132.75 677.394531 137.363281 677.433594 140.234375 674.613281 L 377.976562 441.425781 C 380.847656 438.605469 380.886719 433.992188 378.0625 431.121094 C 375.238281 428.25 370.625 428.210938 367.753906 431.035156 Z M 130.011719 664.21875 " fill-opacity="1" fill-rule="nonzero"/></g></g></g><g clip-path="url(#8c5095a0c6)"><g clip-path="url(#25aebd2dd4)"><g clip-path="url(#6d6b6981a0)"><path fill="#000000" d="M 120.65625 283.667969 C 124.46875 282.363281 126.5 278.210938 125.191406 274.394531 C 123.882812 270.582031 119.730469 268.554688 115.917969 269.859375 L 38.496094 296.53125 L 40.863281 303.433594 L 38.484375 296.527344 C 34.671875 297.839844 32.644531 302 33.957031 305.8125 C 34.316406 306.851562 34.882812 307.757812 35.597656 308.5 L 87.765625 370.929688 C 90.335938 374.027344 94.933594 374.453125 98.027344 371.878906 C 101.125 369.308594 101.550781 364.714844 98.980469 361.617188 L 53.25 306.886719 Z M 120.65625 283.667969 " fill-opacity="1" fill-rule="nonzero"/></g></g></g><g clip-path="url(#6d6b8ec889)"><g clip-path="url(#a8cd3686bd)"><g clip-path="url(#31cbff6b8a)"><path fill="#000000" d="M 651.964844 219.167969 C 651.210938 223.121094 653.800781 226.941406 657.757812 227.695312 C 661.710938 228.453125 665.527344 225.859375 666.285156 221.90625 L 681.894531 141.539062 L 681.910156 141.542969 C 682.679688 137.582031 680.089844 133.75 676.132812 132.980469 C 675.113281 132.78125 674.109375 132.804688 673.160156 133.015625 L 592.800781 147.015625 C 588.832031 147.714844 586.179688 151.496094 586.875 155.46875 C 587.574219 159.4375 591.359375 162.09375 595.328125 161.394531 L 665.5625 149.160156 Z M 651.964844 219.167969 " fill-opacity="1" fill-rule="nonzero"/></g></g></g><g clip-path="url(#2dcd5455c6)"><g clip-path="url(#8e6a4a0b06)"><g clip-path="url(#498683efea)"><path fill="#000000" d="M 689.21875 525.886719 C 685.40625 527.191406 683.375 531.34375 684.679688 535.160156 C 685.988281 538.972656 690.140625 541 693.953125 539.695312 L 771.375 513.023438 L 769.007812 506.121094 L 771.386719 513.027344 C 775.203125 511.714844 777.230469 507.554688 775.914062 503.742188 C 775.558594 502.703125 774.992188 501.796875 774.273438 501.054688 L 722.109375 438.625 C 719.539062 435.527344 714.941406 435.101562 711.84375 437.675781 C 708.746094 440.246094 708.320312 444.839844 710.894531 447.9375 L 756.625 502.667969 Z M 689.21875 525.886719 " fill-opacity="1" fill-rule="nonzero"/></g></g></g><g clip-path="url(#78eb0f3bc9)"><g clip-path="url(#5c4b0f4c24)"><g clip-path="url(#032ed37338)"><path fill="#000000" d="M 157.910156 590.386719 C 158.664062 586.433594 156.070312 582.613281 152.117188 581.859375 C 148.164062 581.105469 144.347656 583.695312 143.589844 587.652344 L 127.980469 668.015625 L 127.964844 668.011719 C 127.195312 671.972656 129.785156 675.804688 133.742188 676.574219 C 134.757812 676.773438 135.765625 676.75 136.714844 676.539062 L 217.070312 662.539062 C 221.042969 661.839844 223.695312 658.058594 223 654.085938 C 222.300781 650.117188 218.515625 647.464844 214.546875 648.160156 L 144.3125 660.398438 Z M 157.910156 590.386719 " fill-opacity="1" fill-rule="nonzero"/></g></g></g><g clip-path="url(#34c9b23a9c)"><g clip-path="url(#fc9b12ce0a)"><g clip-path="url(#aa7c273577)"><path fill="#5944ff" d="M 365.390625 381.433594 C 364.628906 382.726562 363.929688 384.058594 363.292969 385.421875 C 362.660156 386.785156 362.09375 388.175781 361.597656 389.597656 C 361.101562 391.015625 360.675781 392.457031 360.316406 393.917969 C 359.960938 395.378906 359.679688 396.855469 359.46875 398.34375 C 359.257812 399.832031 359.121094 401.328125 359.058594 402.832031 C 358.992188 404.335938 359.003906 405.835938 359.085938 407.339844 C 359.171875 408.839844 359.328125 410.332031 359.558594 411.820312 C 359.789062 413.304688 360.09375 414.777344 360.46875 416.234375 C 360.84375 417.691406 361.289062 419.125 361.804688 420.539062 C 362.320312 421.949219 362.90625 423.335938 363.558594 424.691406 C 364.207031 426.046875 364.925781 427.363281 365.707031 428.648438 C 366.488281 429.933594 367.332031 431.179688 368.234375 432.378906 C 369.140625 433.582031 370.101562 434.738281 371.117188 435.84375 C 372.136719 436.953125 373.207031 438.007812 374.328125 439.011719 C 375.449219 440.011719 376.613281 440.957031 377.828125 441.847656 C 379.042969 442.734375 380.296875 443.558594 381.59375 444.324219 C 382.886719 445.089844 384.21875 445.789062 385.582031 446.421875 C 386.945312 447.054688 388.335938 447.621094 389.757812 448.117188 C 391.175781 448.617188 392.617188 449.042969 394.078125 449.398438 C 395.539062 449.753906 397.015625 450.039062 398.503906 450.25 C 399.992188 450.457031 401.488281 450.597656 402.992188 450.660156 C 404.492188 450.722656 405.996094 450.714844 407.496094 450.628906 C 409 450.546875 410.492188 450.390625 411.980469 450.15625 C 413.464844 449.925781 414.9375 449.625 416.394531 449.25 C 417.851562 448.875 419.285156 448.429688 420.699219 447.914062 C 422.109375 447.394531 423.496094 446.8125 424.847656 446.160156 C 426.203125 445.507812 427.523438 444.789062 428.808594 444.007812 C 430.09375 443.226562 431.339844 442.382812 432.539062 441.480469 C 433.742188 440.578125 434.898438 439.617188 436.003906 438.597656 C 437.113281 437.582031 438.167969 436.511719 439.167969 435.390625 C 440.171875 434.269531 441.117188 433.101562 442.003906 431.886719 C 442.894531 430.671875 443.71875 429.417969 444.484375 428.125 C 445.25 426.828125 445.949219 425.5 446.582031 424.136719 C 447.214844 422.769531 447.78125 421.378906 448.277344 419.960938 C 448.777344 418.539062 449.203125 417.101562 449.558594 415.640625 C 449.914062 414.175781 450.195312 412.703125 450.40625 411.214844 C 450.617188 409.722656 450.753906 408.226562 450.820312 406.726562 C 450.882812 405.222656 450.875 403.71875 450.789062 402.21875 C 450.707031 400.71875 450.546875 399.222656 450.316406 397.738281 C 450.085938 396.25 449.785156 394.78125 449.410156 393.324219 C 449.035156 391.867188 448.589844 390.433594 448.070312 389.019531 C 447.554688 387.605469 446.972656 386.222656 446.320312 384.867188 C 445.667969 383.511719 444.949219 382.191406 444.167969 380.90625 C 443.386719 379.621094 442.542969 378.378906 441.640625 377.175781 C 440.734375 375.976562 439.777344 374.820312 438.757812 373.710938 C 437.742188 372.605469 436.671875 371.550781 435.550781 370.546875 C 434.429688 369.542969 433.261719 368.597656 432.046875 367.710938 C 430.832031 366.824219 429.578125 365.996094 428.285156 365.234375 C 426.988281 364.46875 425.660156 363.769531 424.296875 363.132812 C 422.929688 362.5 421.539062 361.933594 420.121094 361.4375 C 418.699219 360.941406 417.261719 360.515625 415.796875 360.160156 C 414.335938 359.804688 412.863281 359.519531 411.371094 359.308594 C 409.882812 359.097656 408.386719 358.960938 406.886719 358.898438 C 405.382812 358.832031 403.878906 358.84375 402.378906 358.925781 C 400.875 359.011719 399.382812 359.167969 397.898438 359.398438 C 396.410156 359.628906 394.9375 359.933594 393.484375 360.308594 C 392.027344 360.683594 390.589844 361.128906 389.179688 361.644531 C 387.765625 362.160156 386.382812 362.746094 385.027344 363.398438 C 383.671875 364.050781 382.351562 364.765625 381.066406 365.546875 C 379.78125 366.328125 378.539062 367.171875 377.335938 368.078125 C 376.132812 368.980469 374.980469 369.941406 373.871094 370.957031 C 372.765625 371.976562 371.710938 373.046875 370.707031 374.167969 C 369.703125 375.289062 368.757812 376.457031 367.871094 377.667969 C 366.984375 378.882812 366.15625 380.136719 365.390625 381.433594 Z M 365.390625 381.433594 " fill-opacity="1" fill-rule="nonzero"/></g></g></g><g clip-path="url(#95c3411853)"><g clip-path="url(#c92aa784a9)"><g clip-path="url(#63e3e5c769)"><path fill="#e04141" d="M 155.109375 313.335938 C 155.773438 313.523438 156.429688 313.742188 157.074219 313.988281 C 157.71875 314.238281 158.347656 314.519531 158.964844 314.832031 C 159.582031 315.144531 160.183594 315.484375 160.765625 315.855469 C 161.347656 316.226562 161.910156 316.625 162.457031 317.050781 C 163 317.476562 163.523438 317.925781 164.023438 318.402344 C 164.519531 318.882812 164.996094 319.382812 165.445312 319.90625 C 165.898438 320.429688 166.320312 320.972656 166.71875 321.539062 C 167.113281 322.105469 167.484375 322.6875 167.824219 323.289062 C 168.164062 323.890625 168.472656 324.507812 168.75 325.140625 C 169.03125 325.773438 169.277344 326.417969 169.492188 327.074219 C 169.707031 327.730469 169.890625 328.394531 170.042969 329.070312 C 170.191406 329.742188 170.308594 330.421875 170.394531 331.109375 C 170.476562 331.796875 170.527344 332.484375 170.542969 333.175781 C 170.558594 333.863281 170.539062 334.554688 170.488281 335.242188 C 170.4375 335.933594 170.351562 336.617188 170.230469 337.296875 C 170.113281 337.980469 169.960938 338.652344 169.773438 339.316406 C 169.589844 339.984375 169.371094 340.636719 169.121094 341.28125 C 168.875 341.925781 168.59375 342.558594 168.28125 343.171875 C 167.96875 343.789062 167.628906 344.390625 167.257812 344.972656 C 166.886719 345.554688 166.488281 346.121094 166.0625 346.664062 C 165.636719 347.207031 165.1875 347.730469 164.707031 348.230469 C 164.230469 348.730469 163.730469 349.203125 163.207031 349.65625 C 162.683594 350.105469 162.140625 350.527344 161.574219 350.925781 C 161.007812 351.324219 160.425781 351.691406 159.824219 352.03125 C 159.222656 352.371094 158.605469 352.679688 157.972656 352.957031 C 157.339844 353.238281 156.695312 353.484375 156.039062 353.699219 C 155.382812 353.917969 154.71875 354.101562 154.042969 354.25 C 153.371094 354.402344 152.6875 354.515625 152.003906 354.601562 C 151.316406 354.683594 150.628906 354.734375 149.9375 354.75 C 149.246094 354.765625 148.558594 354.75 147.867188 354.695312 C 147.179688 354.644531 146.496094 354.558594 145.816406 354.441406 C 145.132812 354.320312 144.460938 354.167969 143.796875 353.984375 C 143.128906 353.796875 142.476562 353.582031 141.832031 353.332031 C 141.1875 353.082031 140.554688 352.800781 139.941406 352.488281 C 139.324219 352.175781 138.722656 351.835938 138.140625 351.464844 C 137.554688 351.09375 136.992188 350.695312 136.449219 350.269531 C 135.90625 349.84375 135.382812 349.394531 134.882812 348.917969 C 134.382812 348.441406 133.910156 347.9375 133.457031 347.414062 C 133.007812 346.890625 132.582031 346.347656 132.1875 345.78125 C 131.789062 345.214844 131.421875 344.632812 131.082031 344.03125 C 130.742188 343.429688 130.433594 342.8125 130.152344 342.179688 C 129.875 341.546875 129.628906 340.902344 129.410156 340.246094 C 129.195312 339.589844 129.011719 338.925781 128.863281 338.25 C 128.710938 337.578125 128.59375 336.898438 128.511719 336.210938 C 128.429688 335.523438 128.378906 334.835938 128.363281 334.144531 C 128.347656 333.457031 128.363281 332.765625 128.417969 332.078125 C 128.46875 331.386719 128.554688 330.703125 128.671875 330.023438 C 128.792969 329.34375 128.945312 328.667969 129.128906 328.003906 C 129.316406 327.335938 129.53125 326.683594 129.78125 326.039062 C 130.03125 325.394531 130.3125 324.765625 130.625 324.148438 C 130.933594 323.53125 131.277344 322.929688 131.648438 322.347656 C 132.015625 321.765625 132.414062 321.199219 132.839844 320.65625 C 133.265625 320.113281 133.71875 319.589844 134.195312 319.089844 C 134.671875 318.589844 135.171875 318.117188 135.699219 317.664062 C 136.222656 317.214844 136.765625 316.792969 137.332031 316.394531 C 137.898438 315.996094 138.480469 315.628906 139.082031 315.289062 C 139.683594 314.949219 140.300781 314.640625 140.933594 314.363281 C 141.566406 314.082031 142.210938 313.835938 142.867188 313.621094 C 143.523438 313.402344 144.1875 313.222656 144.863281 313.070312 C 145.535156 312.921875 146.214844 312.804688 146.902344 312.71875 C 147.585938 312.636719 148.277344 312.585938 148.964844 312.570312 C 149.65625 312.554688 150.347656 312.574219 151.035156 312.625 C 151.726562 312.675781 152.410156 312.761719 153.089844 312.882812 C 153.769531 313 154.445312 313.152344 155.109375 313.335938 Z M 155.109375 313.335938 " fill-opacity="1" fill-rule="nonzero"/></g></g></g><g clip-path="url(#034eaf6f7d)"><g clip-path="url(#dbeb80da4d)"><g clip-path="url(#bfd9af233f)"><path fill="#e04141" d="M 609.035156 234.140625 C 608.542969 234.625 608.027344 235.082031 607.488281 235.515625 C 606.949219 235.949219 606.390625 236.355469 605.8125 236.734375 C 605.234375 237.109375 604.640625 237.460938 604.027344 237.78125 C 603.414062 238.101562 602.789062 238.390625 602.148438 238.648438 C 601.507812 238.90625 600.855469 239.132812 600.191406 239.324219 C 599.527344 239.519531 598.859375 239.679688 598.179688 239.808594 C 597.5 239.9375 596.816406 240.03125 596.128906 240.09375 C 595.441406 240.152344 594.75 240.179688 594.058594 240.175781 C 593.367188 240.167969 592.679688 240.128906 591.992188 240.054688 C 591.304688 239.976562 590.625 239.871094 589.949219 239.730469 C 589.273438 239.589844 588.605469 239.414062 587.945312 239.207031 C 587.285156 239 586.636719 238.761719 586.003906 238.492188 C 585.367188 238.21875 584.746094 237.917969 584.140625 237.585938 C 583.535156 237.253906 582.945312 236.894531 582.375 236.507812 C 581.804688 236.117188 581.253906 235.699219 580.722656 235.257812 C 580.195312 234.8125 579.6875 234.34375 579.203125 233.851562 C 578.71875 233.359375 578.261719 232.84375 577.828125 232.304688 C 577.394531 231.765625 576.988281 231.207031 576.609375 230.628906 C 576.234375 230.050781 575.882812 229.457031 575.5625 228.84375 C 575.246094 228.230469 574.957031 227.605469 574.695312 226.964844 C 574.4375 226.324219 574.210938 225.671875 574.019531 225.007812 C 573.824219 224.34375 573.664062 223.671875 573.535156 222.996094 C 573.40625 222.316406 573.3125 221.632812 573.25 220.945312 C 573.191406 220.257812 573.164062 219.566406 573.167969 218.875 C 573.175781 218.183594 573.21875 217.496094 573.292969 216.808594 C 573.367188 216.121094 573.472656 215.441406 573.613281 214.765625 C 573.757812 214.089844 573.929688 213.421875 574.136719 212.761719 C 574.34375 212.101562 574.582031 211.453125 574.855469 210.820312 C 575.125 210.183594 575.425781 209.5625 575.757812 208.957031 C 576.089844 208.351562 576.449219 207.761719 576.839844 207.191406 C 577.226562 206.621094 577.644531 206.070312 578.085938 205.539062 C 578.53125 205.011719 579 204.503906 579.492188 204.019531 C 579.984375 203.535156 580.5 203.078125 581.039062 202.644531 C 581.578125 202.210938 582.136719 201.804688 582.714844 201.425781 C 583.292969 201.046875 583.886719 200.699219 584.5 200.378906 C 585.113281 200.058594 585.738281 199.769531 586.378906 199.511719 C 587.019531 199.253906 587.671875 199.027344 588.335938 198.835938 C 589 198.640625 589.671875 198.480469 590.347656 198.351562 C 591.027344 198.222656 591.710938 198.128906 592.398438 198.066406 C 593.089844 198.007812 593.777344 197.980469 594.46875 197.984375 C 595.160156 197.992188 595.847656 198.03125 596.535156 198.105469 C 597.222656 198.179688 597.902344 198.289062 598.578125 198.429688 C 599.257812 198.570312 599.925781 198.746094 600.582031 198.953125 C 601.242188 199.160156 601.890625 199.398438 602.523438 199.667969 C 603.160156 199.941406 603.78125 200.242188 604.386719 200.574219 C 604.996094 200.902344 605.582031 201.265625 606.152344 201.652344 C 606.722656 202.042969 607.273438 202.460938 607.804688 202.902344 C 608.335938 203.347656 608.839844 203.816406 609.324219 204.308594 C 609.808594 204.800781 610.265625 205.316406 610.699219 205.855469 C 611.132812 206.394531 611.539062 206.953125 611.917969 207.53125 C 612.296875 208.109375 612.644531 208.703125 612.964844 209.316406 C 613.285156 209.929688 613.574219 210.554688 613.832031 211.195312 C 614.089844 211.835938 614.316406 212.488281 614.507812 213.152344 C 614.703125 213.816406 614.863281 214.484375 614.992188 215.164062 C 615.121094 215.84375 615.214844 216.527344 615.277344 217.214844 C 615.339844 217.902344 615.367188 218.59375 615.359375 219.285156 C 615.351562 219.976562 615.3125 220.664062 615.238281 221.351562 C 615.164062 222.039062 615.054688 222.71875 614.914062 223.394531 C 614.773438 224.070312 614.597656 224.738281 614.390625 225.398438 C 614.183594 226.058594 613.945312 226.707031 613.675781 227.339844 C 613.402344 227.976562 613.101562 228.597656 612.773438 229.203125 C 612.441406 229.808594 612.078125 230.398438 611.691406 230.96875 C 611.300781 231.539062 610.882812 232.089844 610.441406 232.621094 C 609.996094 233.148438 609.527344 233.65625 609.035156 234.140625 Z M 609.035156 234.140625 " fill-opacity="1" fill-rule="nonzero"/></g></g></g><g clip-path="url(#55e51fdc6a)"><g clip-path="url(#e7f0f923dd)"><g clip-path="url(#cdb7d8f4b4)"><path fill="#e04141" d="M 654.765625 496.203125 C 654.097656 496.019531 653.445312 495.800781 652.800781 495.550781 C 652.15625 495.300781 651.523438 495.023438 650.90625 494.710938 C 650.292969 494.398438 649.691406 494.058594 649.109375 493.6875 C 648.523438 493.316406 647.960938 492.917969 647.417969 492.492188 C 646.875 492.066406 646.351562 491.613281 645.851562 491.136719 C 645.351562 490.660156 644.878906 490.160156 644.425781 489.636719 C 643.976562 489.113281 643.550781 488.566406 643.15625 488.003906 C 642.757812 487.4375 642.390625 486.851562 642.050781 486.25 C 641.710938 485.648438 641.402344 485.03125 641.121094 484.402344 C 640.84375 483.769531 640.597656 483.125 640.378906 482.46875 C 640.164062 481.8125 639.980469 481.148438 639.832031 480.472656 C 639.679688 479.796875 639.5625 479.117188 639.480469 478.433594 C 639.398438 477.746094 639.347656 477.058594 639.332031 476.367188 C 639.316406 475.675781 639.332031 474.988281 639.386719 474.296875 C 639.4375 473.609375 639.523438 472.925781 639.640625 472.242188 C 639.761719 471.5625 639.914062 470.890625 640.097656 470.222656 C 640.285156 469.558594 640.5 468.902344 640.75 468.257812 C 641 467.617188 641.28125 466.984375 641.59375 466.367188 C 641.902344 465.75 642.246094 465.152344 642.617188 464.570312 C 642.984375 463.984375 643.382812 463.421875 643.808594 462.878906 C 644.234375 462.332031 644.6875 461.8125 645.164062 461.3125 C 645.640625 460.8125 646.140625 460.335938 646.664062 459.886719 C 647.191406 459.4375 647.734375 459.011719 648.300781 458.617188 C 648.867188 458.21875 649.449219 457.851562 650.050781 457.511719 C 650.652344 457.171875 651.269531 456.863281 651.902344 456.582031 C 652.53125 456.304688 653.175781 456.054688 653.832031 455.839844 C 654.488281 455.625 655.15625 455.441406 655.828125 455.292969 C 656.503906 455.140625 657.183594 455.023438 657.871094 454.941406 C 658.554688 454.855469 659.242188 454.808594 659.933594 454.792969 C 660.625 454.777344 661.316406 454.792969 662.003906 454.84375 C 662.691406 454.898438 663.378906 454.984375 664.058594 455.101562 C 664.738281 455.222656 665.414062 455.375 666.078125 455.558594 C 666.742188 455.742188 667.398438 455.960938 668.042969 456.210938 C 668.6875 456.460938 669.316406 456.742188 669.933594 457.050781 C 670.550781 457.363281 671.152344 457.707031 671.734375 458.074219 C 672.316406 458.445312 672.878906 458.84375 673.425781 459.269531 C 673.96875 459.695312 674.492188 460.148438 674.988281 460.625 C 675.488281 461.101562 675.964844 461.601562 676.414062 462.125 C 676.867188 462.648438 677.289062 463.195312 677.6875 463.761719 C 678.082031 464.324219 678.453125 464.910156 678.792969 465.511719 C 679.132812 466.113281 679.441406 466.730469 679.71875 467.363281 C 680 467.992188 680.246094 468.636719 680.460938 469.292969 C 680.675781 469.949219 680.859375 470.617188 681.011719 471.289062 C 681.160156 471.964844 681.277344 472.644531 681.363281 473.332031 C 681.445312 474.015625 681.496094 474.703125 681.511719 475.394531 C 681.527344 476.085938 681.507812 476.777344 681.457031 477.464844 C 681.40625 478.152344 681.320312 478.839844 681.199219 479.519531 C 681.082031 480.199219 680.929688 480.871094 680.742188 481.539062 C 680.558594 482.203125 680.339844 482.859375 680.089844 483.503906 C 679.839844 484.148438 679.5625 484.777344 679.25 485.394531 C 678.9375 486.011719 678.597656 486.609375 678.226562 487.195312 C 677.855469 487.777344 677.457031 488.339844 677.03125 488.886719 C 676.605469 489.429688 676.15625 489.949219 675.675781 490.449219 C 675.199219 490.949219 674.699219 491.425781 674.175781 491.875 C 673.652344 492.324219 673.105469 492.75 672.542969 493.148438 C 671.976562 493.542969 671.394531 493.914062 670.792969 494.25 C 670.191406 494.589844 669.574219 494.902344 668.941406 495.179688 C 668.308594 495.457031 667.664062 495.707031 667.007812 495.921875 C 666.351562 496.136719 665.6875 496.320312 665.011719 496.472656 C 664.335938 496.621094 663.65625 496.738281 662.972656 496.820312 C 662.285156 496.90625 661.597656 496.957031 660.90625 496.972656 C 660.214844 496.988281 659.527344 496.96875 658.835938 496.917969 C 658.148438 496.867188 657.464844 496.78125 656.78125 496.660156 C 656.101562 496.542969 655.429688 496.390625 654.765625 496.203125 Z M 654.765625 496.203125 " fill-opacity="1" fill-rule="nonzero"/></g></g></g><g clip-path="url(#ae9cd34426)"><g clip-path="url(#36c9c91ade)"><g clip-path="url(#30f992b2a6)"><path fill="#e04141" d="M 200.839844 575.410156 C 201.332031 574.925781 201.847656 574.46875 202.386719 574.035156 C 202.925781 573.601562 203.484375 573.195312 204.0625 572.820312 C 204.640625 572.441406 205.234375 572.089844 205.847656 571.769531 C 206.460938 571.453125 207.085938 571.164062 207.726562 570.90625 C 208.367188 570.644531 209.019531 570.421875 209.683594 570.226562 C 210.347656 570.03125 211.015625 569.871094 211.695312 569.742188 C 212.375 569.613281 213.058594 569.519531 213.746094 569.457031 C 214.433594 569.398438 215.125 569.371094 215.816406 569.375 C 216.507812 569.382812 217.195312 569.425781 217.882812 569.5 C 218.570312 569.574219 219.25 569.679688 219.925781 569.820312 C 220.601562 569.964844 221.269531 570.136719 221.929688 570.34375 C 222.589844 570.550781 223.238281 570.789062 223.871094 571.0625 C 224.507812 571.332031 225.128906 571.632812 225.734375 571.964844 C 226.339844 572.296875 226.929688 572.65625 227.5 573.046875 C 228.070312 573.433594 228.621094 573.851562 229.152344 574.292969 C 229.679688 574.738281 230.1875 575.207031 230.671875 575.699219 C 231.15625 576.191406 231.613281 576.707031 232.046875 577.246094 C 232.480469 577.785156 232.886719 578.34375 233.265625 578.921875 C 233.640625 579.5 233.992188 580.09375 234.3125 580.707031 C 234.632812 581.320312 234.917969 581.945312 235.179688 582.585938 C 235.4375 583.226562 235.664062 583.878906 235.855469 584.542969 C 236.050781 585.207031 236.210938 585.878906 236.339844 586.554688 C 236.46875 587.234375 236.5625 587.917969 236.625 588.605469 C 236.683594 589.296875 236.710938 589.984375 236.707031 590.675781 C 236.699219 591.367188 236.660156 592.054688 236.585938 592.742188 C 236.507812 593.429688 236.402344 594.109375 236.261719 594.785156 C 236.117188 595.464844 235.945312 596.132812 235.738281 596.789062 C 235.53125 597.449219 235.292969 598.097656 235.023438 598.734375 C 234.75 599.367188 234.449219 599.988281 234.117188 600.59375 C 233.785156 601.203125 233.425781 601.789062 233.035156 602.359375 C 232.648438 602.929688 232.230469 603.480469 231.789062 604.011719 C 231.34375 604.542969 230.875 605.046875 230.382812 605.53125 C 229.890625 606.015625 229.375 606.472656 228.835938 606.90625 C 228.296875 607.339844 227.738281 607.746094 227.160156 608.125 C 226.582031 608.503906 225.988281 608.851562 225.375 609.171875 C 224.761719 609.492188 224.136719 609.78125 223.496094 610.039062 C 222.855469 610.296875 222.203125 610.523438 221.539062 610.71875 C 220.875 610.910156 220.203125 611.070312 219.527344 611.199219 C 218.847656 611.328125 218.164062 611.421875 217.476562 611.484375 C 216.789062 611.546875 216.097656 611.574219 215.40625 611.566406 C 214.714844 611.558594 214.027344 611.519531 213.339844 611.445312 C 212.652344 611.371094 211.972656 611.261719 211.296875 611.121094 C 210.621094 610.980469 209.953125 610.804688 209.292969 610.597656 C 208.632812 610.390625 207.984375 610.152344 207.351562 609.882812 C 206.714844 609.613281 206.09375 609.308594 205.488281 608.980469 C 204.882812 608.648438 204.292969 608.285156 203.722656 607.898438 C 203.152344 607.507812 202.601562 607.089844 202.070312 606.648438 C 201.542969 606.203125 201.035156 605.734375 200.550781 605.242188 C 200.066406 604.75 199.609375 604.234375 199.175781 603.695312 C 198.742188 603.15625 198.335938 602.597656 197.957031 602.019531 C 197.578125 601.441406 197.230469 600.847656 196.910156 600.234375 C 196.589844 599.621094 196.300781 598.996094 196.042969 598.355469 C 195.785156 597.714844 195.558594 597.0625 195.367188 596.398438 C 195.171875 595.734375 195.011719 595.066406 194.882812 594.386719 C 194.753906 593.707031 194.660156 593.023438 194.597656 592.335938 C 194.539062 591.648438 194.511719 590.957031 194.515625 590.265625 C 194.523438 589.578125 194.5625 588.886719 194.636719 588.199219 C 194.710938 587.511719 194.820312 586.832031 194.960938 586.15625 C 195.101562 585.480469 195.277344 584.8125 195.484375 584.152344 C 195.691406 583.492188 195.929688 582.847656 196.199219 582.210938 C 196.472656 581.574219 196.773438 580.953125 197.105469 580.347656 C 197.433594 579.742188 197.796875 579.152344 198.183594 578.582031 C 198.574219 578.011719 198.992188 577.460938 199.433594 576.929688 C 199.878906 576.402344 200.347656 575.894531 200.839844 575.410156 Z M 200.839844 575.410156 " fill-opacity="1" fill-rule="nonzero"/></g></g></g><g clip-path="url(#18d9e00fbf)"><g clip-path="url(#d6e93a2c7d)"><g clip-path="url(#3ee1441c7c)"><path fill="#5944ff" d="M 231.648438 248.777344 C 233.101562 244.925781 231.15625 240.621094 227.304688 239.167969 C 223.453125 237.714844 219.152344 239.660156 217.699219 243.511719 L 192.152344 311.113281 C 190.699219 314.964844 192.644531 319.265625 196.496094 320.71875 C 200.347656 322.171875 204.648438 320.226562 206.101562 316.375 Z M 231.648438 248.777344 " fill-opacity="1" fill-rule="nonzero"/></g></g></g><g clip-path="url(#e3a9c07712)"><g clip-path="url(#03afcf65e7)"><g clip-path="url(#f8c88e9126)"><path fill="#5944ff" d="M 189.222656 250.847656 C 186.085938 248.175781 181.382812 248.554688 178.710938 251.6875 C 176.042969 254.820312 176.417969 259.527344 179.550781 262.195312 L 234.578125 309.039062 C 237.710938 311.710938 242.417969 311.335938 245.089844 308.199219 C 247.757812 305.066406 247.382812 300.363281 244.25 297.691406 Z M 189.222656 250.847656 " fill-opacity="1" fill-rule="nonzero"/></g></g></g><g clip-path="url(#8193ca78f8)"><g clip-path="url(#037caf4da7)"><g clip-path="url(#0435dd7b71)"><path fill="#5944ff" d="M 533.59375 170.441406 C 534.6875 166.484375 532.363281 162.386719 528.40625 161.296875 C 524.445312 160.203125 520.351562 162.523438 519.257812 166.484375 L 500.976562 232.164062 C 499.882812 236.121094 502.203125 240.21875 506.164062 241.308594 C 510.121094 242.402344 514.21875 240.082031 515.308594 236.121094 Z M 533.59375 170.441406 " fill-opacity="1" fill-rule="nonzero"/></g></g></g><g clip-path="url(#f67fce5758)"><g clip-path="url(#a764b44b7c)"><g clip-path="url(#24cb504b6a)"><path fill="#5944ff" d="M 498.734375 171.769531 C 495.863281 168.832031 491.15625 168.777344 488.214844 171.648438 C 485.277344 174.515625 485.222656 179.226562 488.09375 182.164062 L 511.964844 206.5 C 514.832031 209.4375 519.542969 209.492188 522.480469 206.621094 C 525.417969 203.753906 525.472656 199.042969 522.601562 196.105469 Z M 498.734375 171.769531 " fill-opacity="1" fill-rule="nonzero"/></g></g></g><g clip-path="url(#d145118592)"><g clip-path="url(#88f7125574)"><g clip-path="url(#bec2618fed)"><path fill="#5944ff" d="M 315.984375 576.171875 C 317.4375 572.316406 315.492188 568.015625 311.640625 566.5625 C 307.789062 565.109375 303.488281 567.054688 302.035156 570.90625 L 276.488281 638.503906 C 275.035156 642.355469 276.976562 646.660156 280.832031 648.113281 C 284.683594 649.566406 288.984375 647.621094 290.4375 643.769531 Z M 315.984375 576.171875 " fill-opacity="1" fill-rule="nonzero"/></g></g></g><g clip-path="url(#719b7c7ab6)"><g clip-path="url(#3c0521ce0c)"><g clip-path="url(#e88c099713)"><path fill="#5944ff" d="M 273.554688 578.242188 C 270.421875 575.570312 265.71875 575.945312 263.046875 579.078125 C 260.378906 582.214844 260.753906 586.917969 263.886719 589.589844 L 318.914062 636.433594 C 322.046875 639.101562 326.753906 638.726562 329.421875 635.59375 C 332.09375 632.460938 331.71875 627.753906 328.582031 625.085938 Z M 273.554688 578.242188 " fill-opacity="1" fill-rule="nonzero"/></g></g></g><g clip-path="url(#aaace7b114)"><g clip-path="url(#6aba1f6685)"><g clip-path="url(#b74618cdf2)"><path fill="#5944ff" d="M 617.925781 497.835938 C 619.019531 493.875 616.699219 489.78125 612.738281 488.6875 C 608.78125 487.59375 604.683594 489.917969 603.59375 493.875 L 585.308594 559.554688 C 584.214844 563.511719 586.539062 567.609375 590.496094 568.703125 C 594.457031 569.796875 598.550781 567.472656 599.644531 563.515625 Z M 617.925781 497.835938 " fill-opacity="1" fill-rule="nonzero"/></g></g></g><g clip-path="url(#fae1d2e7eb)"><g clip-path="url(#60ff74c6d6)"><g clip-path="url(#586eb9dd38)"><path fill="#5944ff" d="M 583.066406 499.164062 C 580.199219 496.226562 575.488281 496.171875 572.550781 499.039062 C 569.613281 501.910156 569.558594 506.617188 572.429688 509.554688 L 596.296875 533.890625 C 599.167969 536.828125 603.875 536.882812 606.8125 534.015625 C 609.75 531.144531 609.804688 526.4375 606.9375 523.5 Z M 583.066406 499.164062 " fill-opacity="1" fill-rule="nonzero"/></g></g></g></svg>